<svg width="28" height="28" viewBox="0 0 28 28" fill="none" xmlns="http://www.w3.org/2000/svg">
<path d="M19.8694 5.59766C19.0651 4.80942 18.1096 4.1921 17.0605 3.78289C16.0113 3.37367 14.8902 3.18103 13.7646 3.21656C11.5985 3.29574 9.54463 4.20006 8.0236 5.74431C6.50256 7.28856 5.62946 9.3559 5.5831 11.523C5.55352 13.3692 6.14095 15.1724 7.25229 16.647C7.4061 16.8777 11.3919 22.4192 12.7183 24.2576C12.8584 24.4511 13.042 24.6088 13.2544 24.7182C13.4668 24.8275 13.7019 24.8852 13.9408 24.8867H13.9477C14.1851 24.8863 14.4192 24.8304 14.6311 24.7233C14.843 24.6162 15.0269 24.4609 15.168 24.27C15.7847 23.4314 20.5915 16.8608 20.7183 16.7012C20.7256 16.6924 20.7322 16.6836 20.7388 16.6741C21.8219 15.215 22.4101 13.4478 22.4175 11.6306C22.4212 10.5052 22.1975 9.39062 21.7596 8.35388C21.3217 7.31715 20.6787 6.37963 19.8694 5.59766Z" stroke="#3A3A3A"/>
<path d="M13.9994 13.9998C15.1592 13.9998 16.0994 13.0596 16.0994 11.8998C16.0994 10.74 15.1592 9.7998 13.9994 9.7998C12.8396 9.7998 11.8994 10.74 11.8994 11.8998C11.8994 13.0596 12.8396 13.9998 13.9994 13.9998Z" fill="#3A3A3A"/>
</svg>
