<svg width="28" height="28" viewBox="0 0 28 28" fill="none" xmlns="http://www.w3.org/2000/svg">
<path d="M18.8915 6.99797C18.2212 6.3411 17.425 5.82667 16.5507 5.48566C15.6764 5.14464 14.7421 4.98411 13.8042 5.01372C11.9991 5.0797 10.2875 5.8333 9.01999 7.12018C7.75246 8.40706 7.02488 10.1298 6.98624 11.9357C6.96159 13.4742 7.45112 14.9769 8.37723 16.2057C8.50541 16.398 11.8269 21.0159 12.9323 22.5479C13.049 22.7091 13.202 22.8406 13.379 22.9317C13.556 23.0228 13.7519 23.0709 13.951 23.0722H13.9568C14.1546 23.0719 14.3496 23.0252 14.5262 22.936C14.7028 22.8467 14.856 22.7174 14.9736 22.5583C15.4875 21.8594 19.4933 16.3839 19.5989 16.2509C19.605 16.2436 19.6105 16.2362 19.616 16.2283C20.5186 15.0124 21.0087 13.5397 21.0149 12.0254C21.018 11.0876 20.8315 10.1588 20.4666 9.29482C20.1017 8.43087 19.5659 7.64961 18.8915 6.99797Z" fill="url(#paint0_linear_280_2066)" stroke="#3A3A3A"/>
<path d="M14 14C14.9665 14 15.75 13.2165 15.75 12.25C15.75 11.2835 14.9665 10.5 14 10.5C13.0335 10.5 12.25 11.2835 12.25 12.25C12.25 13.2165 13.0335 14 14 14Z" fill="#F5F5F5"/>
<defs>
<linearGradient id="paint0_linear_280_2066" x1="10.2229" y1="6.05229" x2="17.3726" y2="17.4678" gradientUnits="userSpaceOnUse">
<stop stop-color="#101010"/>
<stop offset="1" stop-color="#2F2F2F"/>
</linearGradient>
</defs>
</svg>
