<svg width="40" height="40" viewBox="0 0 40 40" fill="none" xmlns="http://www.w3.org/2000/svg">
<path d="M13.1786 17.3401C13.1774 16.4391 13.3544 15.5467 13.6994 14.7144C14.0445 13.8821 14.5508 13.1263 15.1893 12.4906C15.8277 11.8548 16.5856 11.3516 17.4193 11.01C18.253 10.6684 19.1461 10.4951 20.0471 10.5001C23.8091 10.5286 26.8205 13.6541 26.8205 17.4256V18.1001C26.8205 21.501 27.533 23.477 28.16 24.56C28.2266 24.6754 28.2617 24.8062 28.2619 24.9394C28.262 25.0725 28.2271 25.2034 28.1607 25.3189C28.0943 25.4343 27.9988 25.5303 27.8836 25.5972C27.7684 25.6641 27.6377 25.6996 27.5045 25.7H12.4946C12.3614 25.6996 12.2307 25.6641 12.1156 25.5972C12.0004 25.5303 11.9048 25.4343 11.8385 25.3189C11.7721 25.2034 11.7372 25.0725 11.7373 24.9394C11.7374 24.8062 11.7725 24.6754 11.8391 24.56C12.4661 23.477 13.1786 21.501 13.1786 18.1001V17.3401Z" stroke="#F5F5F5" stroke-linecap="round" stroke-linejoin="round"/>
<path d="M16.96 25.7002V26.4602C16.96 27.2664 17.2802 28.0397 17.8504 28.6098C18.4205 29.1799 19.1937 29.5002 19.9999 29.5002C20.8062 29.5002 21.5794 29.1799 22.1495 28.6098C22.7196 28.0397 23.0399 27.2664 23.0399 26.4602V25.7002" stroke="#F5F5F5" stroke-linecap="round" stroke-linejoin="round"/>
<circle cx="30" cy="11" r="2" fill="#EA0000"/>
</svg>
