<svg width="28" height="28" viewBox="0 0 28 28" fill="none" xmlns="http://www.w3.org/2000/svg">
<path d="M14.0007 13.9998C16.578 13.9998 18.6673 11.9105 18.6673 9.33317C18.6673 6.75584 16.578 4.6665 14.0007 4.6665C11.4233 4.6665 9.33398 6.75584 9.33398 9.33317C9.33398 11.9105 11.4233 13.9998 14.0007 13.9998Z" stroke="#3A3A3A"/>
<path d="M23.3337 22.1665V23.3332C23.3337 23.6426 23.2107 23.9393 22.992 24.1581C22.7732 24.3769 22.4764 24.4998 22.167 24.4998H5.83366C5.52424 24.4998 5.22749 24.3769 5.0087 24.1581C4.78991 23.9393 4.66699 23.6426 4.66699 23.3332V22.1665C4.66699 20.31 5.40449 18.5295 6.71724 17.2168C8.03 15.904 9.81048 15.1665 11.667 15.1665H16.3337C18.1902 15.1665 19.9707 15.904 21.2834 17.2168C22.5962 18.5295 23.3337 20.31 23.3337 22.1665Z" stroke="#3A3A3A"/>
</svg>
